<svg width="24" height="24" viewBox="0 0 24 24" fill="none" xmlns="http://www.w3.org/2000/svg">
<g clip-path="url(#clip0_79_299)">
<path d="M11.8965 17.6356C11.3028 17.6356 6.08783 17.6257 4.5936 17.22C3.49518 16.9231 2.61448 16.0523 2.30771 14.9638C2.02074 13.3706 1.8822 11.8368 1.8921 10.3227C1.8921 8.8384 2.02074 7.31448 2.28792 5.83014C2.58479 4.63277 3.4556 3.73227 4.5837 3.41562C6.08783 3.0099 11.3028 3 11.8965 3C12.4804 3 17.6954 3.0099 19.1698 3.37603C20.3276 3.70259 21.1984 4.60309 21.4854 5.73119C21.4953 5.75098 21.4953 5.77077 21.4953 5.80046C21.7625 7.30459 21.901 8.82851 21.8911 10.3425C21.901 11.8269 21.7625 13.331 21.4953 14.8055C21.1984 16.0028 20.3276 16.9033 19.1995 17.22C17.7053 17.6257 12.4903 17.6356 11.8965 17.6356ZM11.8965 4.97912C9.769 4.97912 6.03835 5.06818 5.10817 5.31557C4.68266 5.43432 4.33631 5.79056 4.21756 6.23586C3.98996 7.55198 3.87122 8.94726 3.88111 10.3326C3.87122 11.7378 3.98996 13.143 4.23735 14.5284C4.33631 14.8648 4.68266 15.2013 5.11806 15.32C6.04825 15.5674 9.769 15.6664 11.8965 15.6664C14.0241 15.6664 17.7547 15.5773 18.6849 15.32C19.1104 15.2013 19.4568 14.845 19.5755 14.3997C19.8031 13.1034 19.9318 11.718 19.9219 10.3425C19.9318 8.94726 19.813 7.55198 19.5656 6.18638C19.4469 5.75098 19.1104 5.41453 18.675 5.28588C17.7646 5.05828 14.034 4.97912 11.8965 4.97912Z" fill="white"/>
<path d="M10.0577 14.0052C9.88947 14.0052 9.71135 13.9656 9.56292 13.8666C9.25615 13.6885 9.06814 13.362 9.06814 13.0156V7.6621C9.06814 7.30586 9.25615 6.97931 9.56292 6.81108C9.86968 6.63296 10.2457 6.63296 10.5525 6.81108L15.2628 9.49279C15.5695 9.67091 15.7675 9.99746 15.7675 10.3537C15.7675 10.7099 15.5794 11.0365 15.2628 11.2146L10.5525 13.8963C10.3941 13.9557 10.2259 14.0052 10.0577 14.0052ZM10.4139 8.23605V12.4318L14.0951 10.3339L10.4139 8.23605ZM17.9346 20.8134H6.05987C5.51561 20.8134 5.07031 20.3681 5.07031 19.8238C5.07031 19.2795 5.51561 18.8342 6.05987 18.8342H17.9346C18.4789 18.8342 18.9242 19.2795 18.9242 19.8238C18.9242 20.3681 18.4887 20.8134 17.9346 20.8134Z" fill="white"/>
</g>
<defs>
<clipPath id="clip0_79_299">
<rect width="24" height="24" fill="white"/>
</clipPath>
</defs>
</svg>
