<svg width="24" height="24" viewBox="0 0 24 24" fill="none" xmlns="http://www.w3.org/2000/svg">
<mask id="mask0_79_304" style="mask-type:alpha" maskUnits="userSpaceOnUse" x="0" y="0" width="24" height="24">
<rect width="24" height="24" fill="#D9D9D9"/>
</mask>
<g mask="url(#mask0_79_304)">
<path fill-rule="evenodd" clip-rule="evenodd" d="M11.0064 3C9.72963 3.00011 8.47135 3.30554 7.3366 3.89082C6.20184 4.4761 5.2235 5.32425 4.48321 6.36452C3.74293 7.40478 3.26215 8.60698 3.081 9.87083C2.89985 11.1347 3.02358 12.4235 3.44186 13.6298C3.86014 14.8361 4.56085 15.9249 5.48552 16.8054C6.41019 17.6858 7.53201 18.3324 8.75739 18.6911C9.98278 19.0498 11.2762 19.1103 12.5297 18.8676C13.7832 18.6248 14.9605 18.0858 15.9633 17.2955L19.4036 20.7356C19.5812 20.9072 19.8192 21.0021 20.0662 21C20.3132 20.9978 20.5494 20.8988 20.7241 20.7241C20.8987 20.5495 20.9978 20.3132 21 20.0662C21.0021 19.8192 20.9072 19.5813 20.7356 19.4036L17.2953 15.9635C18.226 14.7829 18.8055 13.364 18.9675 11.8694C19.1295 10.3748 18.8674 8.86478 18.2112 7.51217C17.555 6.15955 16.5312 5.019 15.2571 4.22102C13.9829 3.42305 12.5099 2.9999 11.0064 3ZM4.88335 11.0068C4.88335 9.38294 5.52846 7.82556 6.67676 6.6773C7.82506 5.52904 9.3825 4.88396 11.0064 4.88396C12.6304 4.88396 14.1878 5.52904 15.3361 6.6773C16.4844 7.82556 17.1295 9.38294 17.1295 11.0068C17.1295 12.6307 16.4844 14.1881 15.3361 15.3363C14.1878 16.4846 12.6304 17.1297 11.0064 17.1297C9.3825 17.1297 7.82506 16.4846 6.67676 15.3363C5.52846 14.1881 4.88335 12.6307 4.88335 11.0068Z" fill="white"/>
</g>
</svg>
