<svg width="24" height="24" viewBox="0 0 24 24" fill="none" xmlns="http://www.w3.org/2000/svg">
<path d="M19.999 19.9648V8.91333L11.999 4.03231L3.99902 8.91333V19.9648H7.99902V17.1684C7.99902 16.0896 8.42045 15.055 9.1706 14.2922C9.92074 13.5294 10.9382 13.1008 11.999 13.1008C13.0599 13.1008 14.0773 13.5294 14.8275 14.2922C15.5776 15.055 15.999 16.0896 15.999 17.1684V19.9648H19.999ZM13.999 21.9985V17.1684C13.999 16.629 13.7883 16.1117 13.4132 15.7303C13.0382 15.3489 12.5295 15.1346 11.999 15.1346C11.4686 15.1346 10.9599 15.3489 10.5848 15.7303C10.2097 16.1117 9.99902 16.629 9.99902 17.1684V21.9985H3.99902C3.46859 21.9985 2.95988 21.7843 2.58481 21.4029C2.20974 21.0215 1.99902 20.5042 1.99902 19.9648V8.91333C1.99902 8.56213 2.08845 8.21691 2.25862 7.9113C2.42878 7.60568 2.67387 7.35008 2.97002 7.16939L10.97 2.28837C11.2809 2.09872 11.6365 1.99854 11.999 1.99854C12.3615 1.99854 12.7172 2.09872 13.028 2.28837L21.028 7.16939C21.3242 7.35008 21.5693 7.60568 21.7394 7.9113C21.9096 8.21691 21.999 8.56213 21.999 8.91333V19.9648C21.999 20.5042 21.7883 21.0215 21.4132 21.4029C21.0382 21.7843 20.5295 21.9985 19.999 21.9985H13.999Z" fill="white"/>
</svg>
